<svg width="54" height="54" viewBox="0 0 54 54" fill="none" xmlns="http://www.w3.org/2000/svg">
<circle cx="27" cy="27" r="26" stroke="#0C3275" stroke-width="2"/>
<path d="M15.2929 37.2929C14.9024 37.6834 14.9024 38.3166 15.2929 38.7071C15.6834 39.0976 16.3166 39.0976 16.7071 38.7071L15.2929 37.2929ZM39 16C39 15.4477 38.5523 15 38 15L29 15C28.4477 15 28 15.4477 28 16C28 16.5523 28.4477 17 29 17L37 17L37 25C37 25.5523 37.4477 26 38 26C38.5523 26 39 25.5523 39 25L39 16ZM16.7071 38.7071L38.7071 16.7071L37.2929 15.2929L15.2929 37.2929L16.7071 38.7071Z" fill="#0C3275"/>
</svg>
