<svg width="226" height="48" viewBox="0 0 226 48" fill="none" xmlns="http://www.w3.org/2000/svg">
<path d="M24.5168 47.64C19.6528 47.64 15.4501 46.68 11.9088 44.76C8.36742 42.7973 5.63675 40.0667 3.71675 36.568C1.79675 33.0267 0.83675 28.888 0.83675 24.152C0.83675 19.416 1.79675 15.2773 3.71675 11.736C5.63675 8.152 8.30342 5.35733 11.7168 3.352C15.1301 1.304 19.0981 0.279999 23.6208 0.279999C27.2901 0.279999 30.5754 0.962666 33.4768 2.328C36.4208 3.65066 38.7888 5.48533 40.5808 7.832C42.4154 10.136 43.5248 12.824 43.9088 15.896H35.5888C35.1621 13.1653 33.8821 11.0107 31.7488 9.432C29.6154 7.85333 26.9488 7.064 23.7488 7.064C20.8474 7.064 18.3088 7.74667 16.1328 9.112C13.9568 10.4773 12.2714 12.4187 11.0768 14.936C9.88208 17.4533 9.28475 20.4613 9.28475 23.96C9.28475 27.544 9.88208 30.616 11.0768 33.176C12.3141 35.6933 14.0848 37.6133 16.3888 38.936C18.7354 40.2587 21.5941 40.92 24.9648 40.92C27.5674 40.92 29.8074 40.6 31.6848 39.96C33.5621 39.2773 35.0768 38.2747 36.2288 36.952L44.2288 40.088C41.7968 42.5627 38.9808 44.44 35.7808 45.72C32.5808 47 28.8261 47.64 24.5168 47.64ZM35.9088 40.088V26.648L37.8928 28.632H24.9008V22.104H44.2288V40.088H35.9088ZM51.6318 47V14.36H59.5038V22.232H59.6958V47H51.6318ZM59.6958 29.976L58.8638 22.232C59.6318 19.4587 60.9331 17.3467 62.7678 15.896C64.6024 14.4453 66.7998 13.72 69.3598 13.72C70.2558 13.72 70.8958 13.8053 71.2798 13.976V21.592C71.0664 21.5067 70.7678 21.464 70.3838 21.464C69.9998 21.4213 69.5304 21.4 68.9758 21.4C65.8611 21.4 63.5358 22.0827 61.9998 23.448C60.4638 24.8133 59.6958 26.9893 59.6958 29.976ZM91.1048 47.64C87.6488 47.64 84.5981 46.9147 81.9528 45.464C79.3501 44.0133 77.3234 42.008 75.8728 39.448C74.4221 36.8453 73.6968 33.88 73.6968 30.552C73.6968 27.224 74.4221 24.3013 75.8728 21.784C77.3234 19.2667 79.3501 17.304 81.9528 15.896C84.5981 14.4453 87.6488 13.72 91.1048 13.72C94.6034 13.72 97.6541 14.4453 100.257 15.896C102.859 17.304 104.886 19.2667 106.337 21.784C107.787 24.3013 108.513 27.224 108.513 30.552C108.513 33.88 107.766 36.8453 106.273 39.448C104.822 42.008 102.795 44.0133 100.193 45.464C97.5901 46.9147 94.5608 47.64 91.1048 47.64ZM91.1048 41.176C92.8114 41.176 94.3474 40.7493 95.7128 39.896C97.0781 39 98.1448 37.7627 98.9128 36.184C99.6808 34.5627 100.065 32.664 100.065 30.488C100.065 27.288 99.2114 24.7707 97.5048 22.936C95.8408 21.1013 93.7074 20.184 91.1048 20.184C88.5021 20.184 86.3474 21.1013 84.6408 22.936C82.9341 24.7707 82.0808 27.288 82.0808 30.488C82.0808 32.664 82.4648 34.5627 83.2328 36.184C84.0434 37.7627 85.1101 39 86.4328 39.896C87.7981 40.7493 89.3554 41.176 91.1048 41.176ZM178.663 47.64C175.207 47.64 172.177 46.9147 169.575 45.464C167.015 44.0133 165.009 42.008 163.559 39.448C162.151 36.888 161.447 33.944 161.447 30.616C161.447 27.288 162.151 24.3653 163.559 21.848C165.009 19.288 167.015 17.304 169.575 15.896C172.135 14.4453 175.121 13.72 178.535 13.72C181.777 13.72 184.593 14.4027 186.983 15.768C189.372 17.0907 191.228 18.968 192.551 21.4C193.873 23.832 194.535 26.6693 194.535 29.912C194.535 30.5093 194.513 31.064 194.471 31.576C194.428 32.088 194.364 32.6 194.279 33.112H166.439V27.48H188.071L186.407 29.016C186.407 25.944 185.703 23.64 184.295 22.104C182.887 20.568 180.924 19.8 178.407 19.8C175.676 19.8 173.5 20.7387 171.879 22.616C170.3 24.4933 169.511 27.2027 169.511 30.744C169.511 34.2427 170.3 36.9307 171.879 38.808C173.5 40.6427 175.783 41.56 178.727 41.56C180.433 41.56 181.927 41.24 183.207 40.6C184.487 39.96 185.425 38.9787 186.023 37.656H193.639C192.572 40.728 190.759 43.16 188.199 44.952C185.681 46.744 182.503 47.64 178.663 47.64ZM200.569 47V0.919998H208.633V47H200.569ZM217.194 47V0.919998H225.258V47H217.194Z" fill="url(#paint0_radial_3_2878)"/>
<path d="M120.352 47L110.368 14.36H118.816L124.704 38.872H124.128L131.36 14.36H138.72L146.08 38.872H145.44L151.264 14.36H159.52L149.536 47H141.984L134.624 22.744H135.264L127.904 47H120.352Z" fill="url(#paint1_radial_3_2878)"/>
<path d="M120.352 47L110.368 14.36H118.816L124.704 38.872H124.128L131.36 14.36H138.72L146.08 38.872H145.44L151.264 14.36H159.52L149.536 47H141.984L134.624 22.744H135.264L127.904 47H120.352Z" fill="url(#paint2_linear_3_2878)"/>
<defs>
<radialGradient id="paint0_radial_3_2878" cx="0" cy="0" r="1" gradientUnits="userSpaceOnUse" gradientTransform="translate(114 23.5) scale(116 38.5)">
<stop stop-color="#0F53FF"/>
<stop offset="1" stop-color="#88AAFF"/>
</radialGradient>
<radialGradient id="paint1_radial_3_2878" cx="0" cy="0" r="1" gradientUnits="userSpaceOnUse" gradientTransform="translate(114 23.5) scale(116 38.5)">
<stop stop-color="#0F53FF"/>
<stop offset="1" stop-color="#88AAFF"/>
</radialGradient>
<linearGradient id="paint2_linear_3_2878" x1="100.963" y1="20.487" x2="159.799" y2="23.1574" gradientUnits="userSpaceOnUse">
<stop stop-color="#FF9500"/>
<stop offset="1" stop-color="#FFCC85"/>
</linearGradient>
</defs>
</svg>
