<svg width="142" height="31" viewBox="0 0 142 31" fill="none" xmlns="http://www.w3.org/2000/svg">
<path d="M15.573 30.4C12.533 30.4 9.9063 29.8 7.69297 28.6C5.47964 27.3733 3.77297 25.6667 2.57297 23.48C1.37297 21.2667 0.772969 18.68 0.772969 15.72C0.772969 12.76 1.37297 10.1733 2.57297 7.96C3.77297 5.72 5.43964 3.97333 7.57297 2.72C9.7063 1.44 12.1863 0.799999 15.013 0.799999C17.3063 0.799999 19.3596 1.22667 21.173 2.08C23.013 2.90667 24.493 4.05333 25.613 5.52C26.7596 6.96 27.453 8.64 27.693 10.56H22.493C22.2263 8.85333 21.4263 7.50667 20.093 6.52C18.7596 5.53333 17.093 5.04 15.093 5.04C13.2796 5.04 11.693 5.46667 10.333 6.32C8.97297 7.17333 7.91964 8.38667 7.17297 9.96C6.4263 11.5333 6.05297 13.4133 6.05297 15.6C6.05297 17.84 6.4263 19.76 7.17297 21.36C7.9463 22.9333 9.05297 24.1333 10.493 24.96C11.9596 25.7867 13.7463 26.2 15.853 26.2C17.4796 26.2 18.8796 26 20.053 25.6C21.2263 25.1733 22.173 24.5467 22.893 23.72L27.893 25.68C26.373 27.2267 24.613 28.4 22.613 29.2C20.613 30 18.2663 30.4 15.573 30.4ZM22.693 25.68V17.28L23.933 18.52H15.813V14.44H27.893V25.68H22.693ZM32.5198 30V9.6H37.4398V14.52H37.5598V30H32.5198ZM37.5598 19.36L37.0398 14.52C37.5198 12.7867 38.3332 11.4667 39.4798 10.56C40.6265 9.65333 41.9998 9.2 43.5998 9.2C44.1598 9.2 44.5598 9.25333 44.7998 9.36V14.12C44.6665 14.0667 44.4798 14.04 44.2398 14.04C43.9998 14.0133 43.7065 14 43.3598 14C41.4132 14 39.9598 14.4267 38.9998 15.28C38.0398 16.1333 37.5598 17.4933 37.5598 19.36ZM57.1905 30.4C55.0305 30.4 53.1238 29.9467 51.4705 29.04C49.8438 28.1333 48.5771 26.88 47.6705 25.28C46.7638 23.6533 46.3105 21.8 46.3105 19.72C46.3105 17.64 46.7638 15.8133 47.6705 14.24C48.5771 12.6667 49.8438 11.44 51.4705 10.56C53.1238 9.65333 55.0305 9.2 57.1905 9.2C59.3771 9.2 61.2838 9.65333 62.9105 10.56C64.5371 11.44 65.8038 12.6667 66.7105 14.24C67.6171 15.8133 68.0705 17.64 68.0705 19.72C68.0705 21.8 67.6038 23.6533 66.6705 25.28C65.7638 26.88 64.4971 28.1333 62.8705 29.04C61.2438 29.9467 59.3505 30.4 57.1905 30.4ZM57.1905 26.36C58.2571 26.36 59.2171 26.0933 60.0705 25.56C60.9238 25 61.5905 24.2267 62.0705 23.24C62.5505 22.2267 62.7905 21.04 62.7905 19.68C62.7905 17.68 62.2571 16.1067 61.1905 14.96C60.1505 13.8133 58.8171 13.24 57.1905 13.24C55.5638 13.24 54.2171 13.8133 53.1505 14.96C52.0838 16.1067 51.5505 17.68 51.5505 19.68C51.5505 21.04 51.7905 22.2267 52.2705 23.24C52.7771 24.2267 53.4438 25 54.2705 25.56C55.1238 26.0933 56.0971 26.36 57.1905 26.36ZM111.914 30.4C109.754 30.4 107.861 29.9467 106.234 29.04C104.634 28.1333 103.381 26.88 102.474 25.28C101.594 23.68 101.154 21.84 101.154 19.76C101.154 17.68 101.594 15.8533 102.474 14.28C103.381 12.68 104.634 11.44 106.234 10.56C107.834 9.65333 109.701 9.2 111.834 9.2C113.861 9.2 115.621 9.62667 117.114 10.48C118.608 11.3067 119.768 12.48 120.594 14C121.421 15.52 121.834 17.2933 121.834 19.32C121.834 19.6933 121.821 20.04 121.794 20.36C121.768 20.68 121.728 21 121.674 21.32H104.274V17.8H117.794L116.754 18.76C116.754 16.84 116.314 15.4 115.434 14.44C114.554 13.48 113.328 13 111.754 13C110.048 13 108.688 13.5867 107.674 14.76C106.688 15.9333 106.194 17.6267 106.194 19.84C106.194 22.0267 106.688 23.7067 107.674 24.88C108.688 26.0267 110.114 26.6 111.954 26.6C113.021 26.6 113.954 26.4 114.754 26C115.554 25.6 116.141 24.9867 116.514 24.16H121.274C120.608 26.08 119.474 27.6 117.874 28.72C116.301 29.84 114.314 30.4 111.914 30.4ZM125.606 30V1.2H130.646V30H125.606ZM135.996 30V1.2H141.036V30H135.996Z" fill="url(#paint0_linear_94_448)"/>
<path d="M75.4698 30L69.2298 9.6H74.5098L78.1898 24.92H77.8298L82.3498 9.6H86.9498L91.5498 24.92H91.1498L94.7898 9.6H99.9498L93.7098 30H88.9898L84.3898 14.84H84.7898L80.1898 30H75.4698Z" fill="url(#paint1_linear_94_448)"/>
<path d="M75.4698 30L69.2298 9.6H74.5098L78.1898 24.92H77.8298L82.3498 9.6H86.9498L91.5498 24.92H91.1498L94.7898 9.6H99.9498L93.7098 30H88.9898L84.3898 14.84H84.7898L80.1898 30H75.4698Z" fill="url(#paint2_linear_94_448)"/>
<defs>
<linearGradient id="paint0_linear_94_448" x1="-1" y1="16" x2="144" y2="16" gradientUnits="userSpaceOnUse">
<stop stop-color="#0F53FF"/>
<stop offset="1" stop-color="#88AAFF"/>
</linearGradient>
<linearGradient id="paint1_linear_94_448" x1="-1" y1="16" x2="144" y2="16" gradientUnits="userSpaceOnUse">
<stop stop-color="#0F53FF"/>
<stop offset="1" stop-color="#88AAFF"/>
</linearGradient>
<linearGradient id="paint2_linear_94_448" x1="63.3516" y1="14.1217" x2="100.124" y2="15.7951" gradientUnits="userSpaceOnUse">
<stop stop-color="#FF9500"/>
<stop offset="1" stop-color="#FFCC85"/>
</linearGradient>
</defs>
</svg>
